<svg width="58" height="60" viewBox="0 0 58 60" fill="none" xmlns="http://www.w3.org/2000/svg">
    <path d="M0 0V28.6213C10.1771 25.3262 23.3595 26.6707 32.8222 29.8792C43.4233 33.4706 52.1808 33.0239 57.9239 30.7178V0H0Z" fill="#006943"/>
    <path d="M47.5808 34.8605C42.2972 34.796 37.0603 33.8722 32.0801 32.126C19.4969 27.8601 7.73425 28.4799 0 31.1734V59.9999H57.9239V33.2243C56.1602 33.8397 54.338 34.2765 52.4851 34.5278C50.8603 34.7533 49.2215 34.8645 47.5808 34.8605" fill="#006943"/>
    <path fill-rule="evenodd" clip-rule="evenodd" d="M47.4103 22.4455H49.4338L50.7105 15.4177L50.9272 15.4451C51.1355 15.4641 51.3448 15.4717 51.554 15.4679H51.7983V22.4455H53.6005V5.58257H51.554C50.7747 5.56604 50.0015 5.72174 49.2909 6.03832C48.6949 6.28944 48.197 6.72426 47.8712 7.27797C47.5253 7.88842 47.3502 8.57908 47.3642 9.27873V11.6851C47.3506 12.4065 47.5252 13.1191 47.8712 13.7542C48.1423 14.2113 48.522 14.5962 48.9775 14.8754L49.1203 14.9711L47.4103 22.4455ZM51.7983 13.7861H51.3881C50.9793 13.7951 50.5744 13.7059 50.2081 13.5264C49.8717 13.3625 49.5995 13.0933 49.4338 12.7607C49.2503 12.4089 49.1598 12.017 49.171 11.6213V9.49749C49.1638 9.09106 49.2472 8.68804 49.4153 8.31709C49.5814 7.97906 49.8528 7.70268 50.1897 7.52863C50.5494 7.32928 50.9575 7.23154 51.3696 7.24607H51.7798L51.7983 13.7861ZM43.9211 22.4455H45.8709L42.7873 5.58257H41.1187L38.0121 22.4455H39.9895L40.5195 18.6581H43.4095L43.9211 22.4455ZM40.7177 17.0174L41.9438 8.89135L43.1514 17.0174H40.7177ZM37.6342 7.25063V5.58257H30.2871V7.25063H33.0526V22.4455H34.8595V7.26886L37.6342 7.25063ZM29.2685 17.063H27.7013V18.4303C27.7013 19.4284 27.3879 20.9779 26.0374 20.8139C24.8805 20.6954 24.4979 19.4466 24.4979 18.4303V9.6251C24.4979 8.60422 24.9588 7.07745 26.231 7.12758C27.434 7.17316 27.7013 8.67258 27.7013 9.6251V10.4591H29.2685V9.6251C29.2685 7.69727 28.5448 5.45951 26.231 5.40938C25.5814 5.3913 24.9408 5.56218 24.3885 5.90084C23.8363 6.2395 23.3967 6.73101 23.1244 7.31443C22.7931 8.03936 22.6354 8.83008 22.6635 9.6251V18.4394C22.6345 19.2242 22.7923 20.0047 23.1244 20.7182C23.3872 21.322 23.8441 21.8234 24.4242 22.1447C24.9607 22.49 25.5911 22.665 26.231 22.646C28.5678 22.646 29.2685 20.2396 29.2685 18.4303V17.063ZM18.9346 22.4455H20.6677V5.58257H19.1973L15.7082 17.3273V5.58257H13.9936V22.4455H15.4639L18.9346 10.7964V22.4455ZM9.83143 22.4682H11.6383V5.58257H9.83143V12.8746C9.83143 13.6859 9.51801 15.3767 8.44867 15.3995C7.06591 15.4451 6.80782 14.21 6.80782 13.1207V5.58257H5.00099V13.0615C4.98755 13.808 5.11094 14.5507 5.36514 15.2537C5.56733 15.7843 5.9293 16.2409 6.40221 16.5617C7.29179 17.1587 8.63763 17.3273 9.41198 16.466L9.8222 16.0102L9.83143 22.4682Z" fill="white"/>
    <path d="M47.4103 22.4455H49.4338L50.7105 15.4177L50.9272 15.4451C51.1355 15.4641 51.3448 15.4717 51.554 15.4679H51.7983V22.4455H53.6005V5.58257H51.554C50.7747 5.56604 50.0015 5.72174 49.2909 6.03832C48.6949 6.28944 48.197 6.72426 47.8712 7.27797C47.5253 7.88842 47.3502 8.57908 47.3642 9.27873V11.6851C47.3506 12.4065 47.5252 13.1191 47.8712 13.7542C48.1423 14.2113 48.522 14.5962 48.9775 14.8754L49.1203 14.9711L47.4103 22.4455ZM51.7983 13.7861H51.3881C50.9793 13.7951 50.5744 13.7059 50.2081 13.5264C49.8717 13.3625 49.5995 13.0933 49.4338 12.7607C49.2503 12.4089 49.1598 12.017 49.171 11.6213V9.49749C49.1638 9.09106 49.2472 8.68804 49.4153 8.31709C49.5814 7.97906 49.8528 7.70268 50.1897 7.52863C50.5494 7.32928 50.9575 7.23154 51.3696 7.24607H51.7798L51.7983 13.7861ZM43.9211 22.4455H45.8709L42.7873 5.58257H41.1187L38.0121 22.4455H39.9895L40.5195 18.6581H43.4095L43.9211 22.4455ZM40.7177 17.0174L41.9438 8.89135L43.1514 17.0174H40.7177ZM37.6342 7.25063V5.58257H30.2871V7.25063H33.0526V22.4455H34.8595V7.26886L37.6342 7.25063ZM29.2685 17.063H27.7013V18.4303C27.7013 19.4284 27.3879 20.9779 26.0374 20.8139C24.8805 20.6954 24.4979 19.4466 24.4979 18.4303V9.6251C24.4979 8.60422 24.9588 7.07745 26.231 7.12758C27.434 7.17316 27.7013 8.67258 27.7013 9.6251V10.4591H29.2685V9.6251C29.2685 7.69727 28.5448 5.45951 26.231 5.40938C25.5814 5.3913 24.9408 5.56218 24.3885 5.90084C23.8363 6.2395 23.3967 6.73101 23.1244 7.31443C22.7931 8.03936 22.6354 8.83008 22.6635 9.6251V18.4394C22.6345 19.2242 22.7923 20.0047 23.1244 20.7182C23.3872 21.322 23.8441 21.8234 24.4242 22.1447C24.9607 22.49 25.5911 22.665 26.231 22.646C28.5678 22.646 29.2685 20.2396 29.2685 18.4303V17.063ZM18.9346 22.4455H20.6677V5.58257H19.1973L15.7082 17.3273V5.58257H13.9936V22.4455H15.4639L18.9346 10.7964V22.4455ZM9.83143 22.4682H11.6383V5.58257H9.83143V12.8746C9.83143 13.6859 9.51801 15.3767 8.44867 15.3995C7.06591 15.4451 6.80782 14.21 6.80782 13.1207V5.58257H5.00099V13.0615C4.98755 13.808 5.11094 14.5507 5.36514 15.2537C5.56733 15.7843 5.9293 16.2409 6.40221 16.5617C7.29179 17.1587 8.63763 17.3273 9.41198 16.466L9.8222 16.0102L9.83143 22.4682Z" stroke="white" stroke-width="0.38" stroke-miterlimit="10"/>
    <path fill-rule="evenodd" clip-rule="evenodd" d="M28.0829 38.1602H26.2761V55.0231H28.0829V47.567H31.065V55.0459H32.8765V38.183H31.065V45.9308H28.0829V38.1602ZM6.35047 38.1602V51.3771C6.35782 51.7344 6.29194 52.0894 6.15686 52.4208C6.06333 52.7098 5.87733 52.961 5.62685 53.1363C5.4459 53.275 5.22817 53.3589 5 53.3779V55.0414C5.59642 55.0511 6.18583 54.9133 6.71461 54.6403C7.17358 54.3554 7.53375 53.9388 7.74707 53.4462C8.019 52.8399 8.15123 52.1814 8.13423 51.5184V39.8511H10.9274V55.0459H12.7342V38.183L6.35047 38.1602ZM46.4506 55.0231H48.474L49.7508 48L49.9674 48.0228C50.1758 48.0418 50.385 48.0494 50.5943 48.0455H50.8339V55.0231H52.6408V38.1602H50.5943C49.8135 38.1433 49.0387 38.299 48.3266 38.616C47.736 38.8756 47.2404 39.3083 46.9069 39.8557C46.5607 40.4743 46.3858 41.1723 46.3999 41.8792V44.2628C46.3879 44.9854 46.5624 45.6991 46.9069 46.3365C47.1716 46.7971 47.5528 47.1819 48.0131 47.4531L48.1606 47.5488L46.4506 55.0231ZM50.8339 46.3638H50.4237C50.0147 46.375 49.6093 46.2857 49.2438 46.104C48.9163 45.9423 48.6475 45.6844 48.474 45.3657C48.2892 45.0045 48.1974 44.6037 48.2067 44.199V42.0797C48.1974 41.6662 48.2891 41.2566 48.474 40.8856C48.6362 40.5419 48.9062 40.259 49.2438 40.079C49.6089 39.8957 50.0143 39.8049 50.4237 39.8146H50.8339V46.3638ZM41.3436 54.9867H43.0536V38.1238H41.6063L38.1172 49.8913V38.1602H36.3795V55.0231H37.8729L41.3436 43.3513V54.9867ZM20.9063 54.9867H22.6164V38.1238H21.1737L17.6799 49.8913V38.1602H15.9469V55.0231H17.4402L20.9063 43.3513V54.9867Z" fill="white"/>
    <path d="M28.0829 38.1602H26.2761V55.0231H28.0829V47.567H31.065V55.0459H32.8765V38.183H31.065V45.9308H28.0829V38.1602ZM6.35047 38.1602V51.3771C6.35782 51.7344 6.29194 52.0894 6.15686 52.4208C6.06333 52.7098 5.87733 52.961 5.62685 53.1363C5.4459 53.275 5.22817 53.3589 5 53.3779V55.0414C5.59642 55.0511 6.18583 54.9133 6.71461 54.6403C7.17358 54.3554 7.53375 53.9388 7.74707 53.4462C8.019 52.8399 8.15123 52.1814 8.13423 51.5184V39.8511H10.9274V55.0459H12.7342V38.183L6.35047 38.1602ZM46.4506 55.0231H48.474L49.7508 48L49.9674 48.0228C50.1758 48.0418 50.385 48.0494 50.5943 48.0455H50.8339V55.0231H52.6408V38.1602H50.5943C49.8135 38.1433 49.0387 38.299 48.3266 38.616C47.736 38.8756 47.2404 39.3083 46.9069 39.8557C46.5607 40.4743 46.3858 41.1723 46.3999 41.8792V44.2628C46.3879 44.9854 46.5624 45.6991 46.9069 46.3365C47.1716 46.7971 47.5528 47.1819 48.0131 47.4531L48.1606 47.5488L46.4506 55.0231ZM50.8339 46.3638H50.4237C50.0147 46.375 49.6093 46.2857 49.2438 46.104C48.9163 45.9423 48.6475 45.6844 48.474 45.3657C48.2892 45.0045 48.1974 44.6037 48.2067 44.199V42.0797C48.1974 41.6662 48.2891 41.2566 48.474 40.8856C48.6362 40.5419 48.9062 40.259 49.2438 40.079C49.6089 39.8957 50.0143 39.8049 50.4237 39.8146H50.8339V46.3638ZM41.3436 54.9867H43.0536V38.1238H41.6063L38.1172 49.8913V38.1602H36.3795V55.0231H37.8729L41.3436 43.3513V54.9867ZM20.9063 54.9867H22.6164V38.1238H21.1737L17.6799 49.8913V38.1602H15.9469V55.0231H17.4402L20.9063 43.3513V54.9867Z" stroke="white" stroke-width="0.38" stroke-miterlimit="10"/>
</svg>
